<?xml version="1.0" encoding="utf-8"?>
<svg viewBox="0 0 500 500" xmlns="http://www.w3.org/2000/svg">
  <path d="M 250 65.73 L 409.583 157.865 L 409.583 342.135 L 250 434.27 L 90.417 342.135 L 90.417 157.865 Z" style="fill: rgb(39, 116, 116);"/>
  <path d="M 249.938 250 L 409.52 157.865 L 409.52 342.135 L 249.938 434.27 L 249.938 250 Z" style="fill: rgb(17, 52, 52);"/>
  <path d="M 250 249.994 L 90.418 157.859 L 90.418 342.129 L 250 434.263 L 250 249.994 Z" style="fill: rgb(26, 78, 78);"/>
  <path d="M 163.921 -105.077 L 163.921 163.921 L -105.077 163.921 L 163.921 -105.077 Z" style="fill: rgb(108, 56, 134);"/>
  <path d="M 605.077 163.921 L 336.079 163.921 L 336.079 -105.077 L 605.077 163.921 Z" style="fill: rgb(108, 56, 134);"/>
  <path d="M -105.077 336.079 L 163.921 336.079 L 163.921 605.077 L -105.077 336.079 Z" style="fill: rgb(108, 56, 134);"/>
  <path d="M 605.077 336.079 L 336.079 336.079 L 336.079 605.077 L 605.077 336.079 Z" style="fill: rgb(108, 56, 134);"/>
</svg>